<svg id="Layer_1" data-name="Layer 1" xmlns="http://www.w3.org/2000/svg" viewBox="0 0 1093.84 321.63"><defs><style>.cls-1{fill:none;stroke:#000;stroke-miterlimit:10;stroke-width:10px;}</style></defs><g id="Object"><path d="M350.56,124.43q-17-17.82-17-49.4t16.91-49.4Q367.35,7.77,393.78,7.77q22.8,0,37,9.74t17.73,27.57c.24,1.52-.38,2.26-1.9,2.26H435a2.16,2.16,0,0,1-2.17-1.78q-7.77-24.81-39-24.93-18.75,0-31.14,13.72t-12.4,40.59q0,26.91,12.54,40.62t32,13.71q31.15,0,38.92-24.83a2.3,2.3,0,0,1,2.16-1.87h11.68c1.27,0,1.92.53,1.92,1.61a27.1,27.1,0,0,1-5.35,15.65q-15.47,22.38-49.33,22.39Q367.54,142.22,350.56,124.43Z" transform="translate(5 -0.07)"/><path d="M486.83,124.35Q470,106.47,470,75t16.9-49.31Q503.77,7.77,530.25,7.78t43.36,17.86q16.86,17.86,16.86,49.3t-16.86,49.41q-16.92,17.93-43.36,17.88T486.83,124.35Zm74.56-90a42.2,42.2,0,0,0-59.62-2.66c-.93.85-1.81,1.73-2.66,2.66q-12.47,13.73-12.45,40.59t12.45,40.62a42.22,42.22,0,0,0,62.28,0q12.43-13.74,12.44-40.62T561.39,34.35Z" transform="translate(5 -0.07)"/><path d="M620.16,137.65V12.35a1.66,1.66,0,0,1,1.43-1.86,1.6,1.6,0,0,1,.38,0h89.84c1.18,0,1.78.62,1.78,1.87v9.16a1.7,1.7,0,0,1-1.47,1.9,1.63,1.63,0,0,1-.31,0h-75V71.26h61.92c1.19,0,1.82.61,1.88,1.88v9.21c0,1.19-.61,1.8-1.88,1.86H636.84v53.44a1.59,1.59,0,0,1-1.36,1.79,1.69,1.69,0,0,1-.45,0H622a1.58,1.58,0,0,1-1.81-1.31A1.93,1.93,0,0,1,620.16,137.65Z" transform="translate(5 -0.07)"/><path d="M737.68,137.65V12.35a1.64,1.64,0,0,1,1.41-1.86,1.7,1.7,0,0,1,.39,0h89.81c1.21,0,1.79.62,1.79,1.87v9.16a1.69,1.69,0,0,1-1.45,1.9,1.93,1.93,0,0,1-.34,0h-75V71.26H816.2a1.74,1.74,0,0,1,1.91,1.53,2,2,0,0,1,0,.35v9.21c0,1.19-.65,1.8-1.91,1.86H754.34v53.44a1.59,1.59,0,0,1-1.36,1.79,1.69,1.69,0,0,1-.45,0H739.47a1.58,1.58,0,0,1-1.79-1.34A1.7,1.7,0,0,1,737.68,137.65Z" transform="translate(5 -0.07)"/><path d="M855.18,137.65V12.35a1.64,1.64,0,0,1,1.8-1.87h89.8c1.21,0,1.8.62,1.8,1.87v9.16c0,1.26-.59,1.91-1.8,1.91H871.84V67.58h61.9A1.68,1.68,0,0,1,935.65,69a2,2,0,0,1,0,.49v9.16a1.67,1.67,0,0,1-1.41,1.89,1.4,1.4,0,0,1-.5,0h-61.9v46h74.94a1.59,1.59,0,0,1,1.8,1.37,1.7,1.7,0,0,1,0,.45v9.27a1.57,1.57,0,0,1-1.34,1.79,1.77,1.77,0,0,1-.46,0H857a1.57,1.57,0,0,1-1.79-1.33A1.41,1.41,0,0,1,855.18,137.65Z" transform="translate(5 -0.07)"/><path d="M974.57,137.65V12.35c0-1.25.6-1.87,1.81-1.87h89.82c1.19,0,1.79.62,1.79,1.87v9.16c0,1.26-.6,1.91-1.79,1.91h-75V67.58h61.94A1.66,1.66,0,0,1,1055,69a1.85,1.85,0,0,1,0,.47v9.16a1.66,1.66,0,0,1-1.39,1.89,2,2,0,0,1-.49,0H991.2v46h75a1.59,1.59,0,0,1,1.79,1.38,1.62,1.62,0,0,1,0,.44v9.27a1.57,1.57,0,0,1-1.34,1.79,1.7,1.7,0,0,1-.45,0H976.38a1.58,1.58,0,0,1-1.8-1.32A1.48,1.48,0,0,1,974.57,137.65Z" transform="translate(5 -0.07)"/><path d="M420.73,184.77h77.64v27.81h-11.9V288.9h11.9v27.8H420.73V288.9h10.13v-28H401.07v28h10.12v27.8H333.58V288.9h11.89V212.58H333.58V184.77h77.61v27.81H401.07v25.77h29.79V212.58H420.73Z" transform="translate(5 -0.07)"/><path d="M654.81,250.74q0,18.61-5.34,31.61a53.23,53.23,0,0,1-15.18,21.14,61.25,61.25,0,0,1-24,11.86,133,133,0,0,1-62.73,0A61,61,0,0,1,523.7,303.5a53.21,53.21,0,0,1-15.23-21.15q-5.33-12.94-5.33-31.61,0-18.47,5.33-31.55A53.28,53.28,0,0,1,523.7,198a61.61,61.61,0,0,1,23.89-11.86,133.3,133.3,0,0,1,62.73,0A61.81,61.81,0,0,1,634.26,198a53.33,53.33,0,0,1,15.21,21.2Q654.82,232.26,654.81,250.74ZM579,288.9c4.51,0,7.88-1,10.15-3s3.37-5.15,3.37-9.55V225.12c0-4.41-1.13-7.59-3.36-9.58s-5.64-3-10.15-3-7.87,1-10.09,3-3.37,5.17-3.37,9.58v51.23c0,4.4,1.1,7.59,3.37,9.58s5.6,3,10.08,3Z" transform="translate(5 -0.07)"/><path d="M798.75,269.35c0,9.17-1.47,16.87-4.47,23.18a38.83,38.83,0,0,1-12.81,15.36,54.44,54.44,0,0,1-20.15,8.57,121.62,121.62,0,0,1-26.3,2.63,126.48,126.48,0,0,1-26.89-2.63,55.54,55.54,0,0,1-20.45-8.57,40.56,40.56,0,0,1-13.11-15.33c-3.11-6.31-4.65-14-4.65-23.18v-56.8H658V184.77h75.47v27.81h-8V278c0,3.86,1,6.61,2.92,8.31s4.8,2.55,8.62,2.55,6.73-.86,8.64-2.55,2.88-4.45,2.88-8.31V212.58h-7.92V184.77h70.06v27.81H798.75Z" transform="translate(5 -0.07)"/><path d="M873.6,286.35c4.35,0,7.47-.55,9.34-1.7a5.5,5.5,0,0,0,2.76-5.07,5.2,5.2,0,0,0-2.29-4.19c-1.53-1.16-4.57-2.55-9.2-4.13q-14.75-4.72-25.74-9.08a81.93,81.93,0,0,1-18.25-9.58,34.73,34.73,0,0,1-10.85-12.25,37.85,37.85,0,0,1-3.54-17,40.8,40.8,0,0,1,3.46-17.08,31.79,31.79,0,0,1,11.35-12.87c5.22-3.54,12.15-6.25,20.84-8.15s19.33-2.85,32.07-2.85a172.55,172.55,0,0,1,32.55,3q15.23,3,25.4,7.89v30.33H899.8c0-3.26-1.06-5.49-3.16-6.67a15.5,15.5,0,0,0-7.76-1.76c-4.36,0-7.52.48-9.43,1.43a5,5,0,0,0-2.85,5,4.44,4.44,0,0,0,3.06,4.25,70.87,70.87,0,0,0,9.22,3c7.67,2.14,14.93,4.42,21.73,6.79a76,76,0,0,1,18,8.82,39.7,39.7,0,0,1,12.23,12.71c3,5,4.46,11.08,4.46,18.33,0,14.67-5.56,25.65-16.69,32.79s-27.38,10.79-48.84,10.79a218,218,0,0,1-35.17-2.7q-16.86-2.72-27-6.44V276.35h43.7c0,3.39.78,5.89,2.37,7.55S868.56,286.35,873.6,286.35Z" transform="translate(5 -0.07)"/><path d="M1044.36,212.58h-24v26.77h17.45v19.33h-17.45v30.19h24V262.09h44.48V316.7h-136V288.9h11.92V212.58H952.82V184.77h136V236h-44.48Z" transform="translate(5 -0.07)"/><path class="cls-1" d="M243.32,279.93c0,20.31-19.46,36.77-43.47,36.77H46.47C22.47,316.7,3,300.24,3,279.93Z" transform="translate(5 -0.07)"/><path class="cls-1" d="M273.14,203.59a42.79,42.79,0,0,0-27.77-28.48,163.06,163.06,0,0,0,1-18.07H0c0,52.65,25.13,98.59,62.39,122.89H184a124.16,124.16,0,0,0,17.76-14.07,61.11,61.11,0,0,0,8.24.54,81,81,0,0,0,42.21-12.27c14.66-9.47,22.74-23.09,22.74-38.34A42.74,42.74,0,0,0,273.14,203.59Zm-30.69,35.49a62,62,0,0,1-25,8.85,148.86,148.86,0,0,0,24.83-54.8A24.91,24.91,0,0,1,257,215.81C257,227.28,249.08,234.8,242.45,239.08Z" transform="translate(5 -0.07)"/><path d="M110.41,40.66c-3.4,6.66-8.69,12.14-12.73,18.43C88.32,73.63,86.17,92.7,92.49,108.8s21.11,28.71,38.1,32a37,37,0,0,1-18.67-48.88q.45-1,1-2c4.46-8.54,12.05-15,17.37-23a54.31,54.31,0,0,0,8.67-25.33c.87-10.26-1.5-21.55-9.34-28.22-6.83-5.8-16.05-7.67-23.07-13.32C114.1,12.35,117.4,27,110.41,40.66Z" transform="translate(5 -0.07)"/><path d="M139.79,131.35c-4.28-4.08-8.8-8.58-9.82-14.41s1.68-11.55,4.55-16.68,5.95-10,9.29-14.81c4.67-6.67,10.11-14.21,8.31-22.15a27.26,27.26,0,0,1,1.95,29.44c-1.7,3-3.95,5.56-5.82,8.41a32.47,32.47,0,0,0-5.47,21.31c.83,6.9,4.39,12.44,9.41,17C147.38,139.63,143,134.41,139.79,131.35Z" transform="translate(5 -0.07)"/></g></svg>